<svg width="21" height="20" viewBox="0 0 21 20" fill="none" xmlns="http://www.w3.org/2000/svg">
<path fill-rule="evenodd" clip-rule="evenodd" d="M2.16797 9.99996C2.16797 14.6 5.9013 18.3333 10.5013 18.3333C15.1013 18.3333 18.8346 14.6 18.8346 9.99996C18.8346 5.39996 15.1013 1.66663 10.5013 1.66663C5.9013 1.66663 2.16797 5.39996 2.16797 9.99996ZM10.943 13.3583C10.818 13.4833 10.6596 13.5416 10.5013 13.5416C10.343 13.5416 10.1846 13.4833 10.0596 13.3583L7.55964 10.8583C7.31797 10.6166 7.31797 10.2166 7.55964 9.97496C7.8013 9.73329 8.2013 9.73329 8.44297 9.97496L9.8763 11.4083V7.08329C9.8763 6.74163 10.1596 6.45829 10.5013 6.45829C10.843 6.45829 11.1263 6.74163 11.1263 7.08329V11.4083L12.5596 9.97496C12.8013 9.73329 13.2013 9.73329 13.443 9.97496C13.6846 10.2166 13.6846 10.6166 13.443 10.8583L10.943 13.3583Z" fill="#F6AB3F"/>
</svg>
