<svg width="24" height="24" viewBox="0 0 24 24" fill="none" xmlns="http://www.w3.org/2000/svg">
<g clip-path="url(#clip0_75_2579)">
<path d="M7.53363 8.09575L3.66084 8.73252C3.66021 8.73241 3.65958 8.7323 3.65895 8.73219C3.65113 8.7308 3.6429 8.72939 3.63429 8.72797C4.8693 5.30321 8.15309 2.84747 11.9974 2.84747C14.168 2.84747 16.1614 3.63012 17.705 4.92766L17.6536 5.37717L15.8382 7.19255L15.4547 7.186C14.4955 6.45633 13.2972 6.01835 12.0011 6.0156L12.0002 6.0156C11.2055 6.01529 10.4196 6.18101 9.69265 6.50214C9.00515 6.80586 8.38483 7.24226 7.86704 7.78588C7.80531 7.81842 7.75692 7.85658 7.72412 7.88513C7.65265 7.94734 7.5925 8.01959 7.55143 8.07248C7.54538 8.08028 7.53944 8.08805 7.53363 8.09575Z" fill="black" stroke="white"/>
<path d="M20.5813 9.41954L20.629 9.59579L20.7792 9.69977C22.4244 10.8393 23.4975 12.7312 23.5001 14.8678C23.4975 16.5329 22.8348 18.1291 21.6573 19.3066C20.4796 20.4842 18.883 21.1468 17.2175 21.1491H12.2091L11.9807 20.9219V18.2062L12.2107 17.975H17.2182C18.9303 17.975 20.326 16.5826 20.326 14.8672C20.326 13.325 19.1962 12.0395 17.7182 11.7996V11.7375C17.7182 10.1404 17.0588 8.69557 16.001 7.65915L18.2422 5.41793C19.346 6.50749 20.1645 7.8822 20.5813 9.41954Z" fill="black" stroke="white"/>
<path d="M11.4945 21.1525H7.22339L7.22299 21.1493L6.78134 21.1495C5.52033 21.1501 4.29132 20.7693 3.25413 20.0611L3.3171 19.8185L5.2216 17.914L5.6828 17.7726C6.03329 17.9063 6.40575 17.9751 6.78195 17.975C6.78198 17.975 6.78201 17.975 6.78204 17.975H11.4945V21.1525Z" fill="black" stroke="white"/>
<path d="M9.25659 12.9957C8.68987 12.2516 7.79466 11.7625 6.78187 11.7625C5.06981 11.7625 3.67412 13.1549 3.67412 14.8702L3.67412 14.8707C3.67462 15.4689 3.84768 16.0544 4.17255 16.5568C4.36996 16.8621 4.61832 17.1288 4.90519 17.3463L2.65291 19.5986C1.33275 18.4449 0.500107 16.7537 0.5 14.8706C0.502483 13.2053 1.16516 11.6088 2.34278 10.4313C3.52041 9.25372 5.11689 8.59113 6.78225 8.58875C8.66556 8.58875 10.3571 9.42144 11.5107 10.7416L9.25659 12.9957Z" fill="black" stroke="white"/>
</g>
<defs>
<clipPath id="clip0_75_2579">
<rect width="24" height="24" fill="white"/>
</clipPath>
</defs>
</svg>
