<svg width="20" height="20" viewBox="0 0 20 20" fill="none" xmlns="http://www.w3.org/2000/svg">
<path fill-rule="evenodd" clip-rule="evenodd" d="M0 6.14286C0 2.75025 2.75025 0 6.14286 0H13.8571C17.2497 0 20 2.75024 20 6.14286V13.8571C20 17.2497 17.2497 20 13.8571 20H6.14286C2.75024 20 0 17.2497 0 13.8571V6.14286ZM6.14286 2C3.85482 2 2 3.85482 2 6.14286V13.8571C2 16.1451 3.85483 18 6.14286 18H13.8571C16.1451 18 18 16.1451 18 13.8571V6.14286C18 3.85483 16.1451 2 13.8571 2H6.14286Z" fill="white"/>
<path fill-rule="evenodd" clip-rule="evenodd" d="M10.0001 7.14284C8.4221 7.14284 7.14297 8.42197 7.14297 9.99998C7.14297 11.578 8.4221 12.8571 10.0001 12.8571C10.7578 12.8571 11.4846 12.5561 12.0204 12.0203C12.5562 11.4844 12.8573 10.7577 12.8573 9.99998C12.8573 8.42197 11.5781 7.14284 10.0001 7.14284ZM5.14297 9.99998C5.14297 7.3174 7.31753 5.14284 10.0001 5.14284C12.6827 5.14284 14.8573 7.3174 14.8573 9.99998C14.8573 11.2881 14.3455 12.5236 13.4346 13.4345C12.5237 14.3453 11.2883 14.8571 10.0001 14.8571C7.31753 14.8571 5.14297 12.6826 5.14297 9.99998Z" fill="white"/>
<path d="M15.1427 3.57141C14.4327 3.57141 13.857 4.14704 13.857 4.85712C13.857 5.5672 14.4327 6.14284 15.1427 6.14284C15.8528 6.14284 16.4285 5.5672 16.4285 4.85712C16.4285 4.14704 15.8528 3.57141 15.1427 3.57141Z" fill="white"/>
<path fill-rule="evenodd" clip-rule="evenodd" d="M15.5 4.85714C15.5 4.6599 15.3401 4.5 15.1429 4.5C14.9456 4.5 14.7857 4.6599 14.7857 4.85714C14.7857 5.05439 14.9456 5.21429 15.1429 5.21429C15.3401 5.21429 15.5 5.05439 15.5 4.85714ZM15.1429 6.5C14.2355 6.5 13.5 5.76447 13.5 4.85714C13.5 3.94982 14.2355 3.21429 15.1429 3.21429C16.0502 3.21429 16.7857 3.94982 16.7857 4.85714C16.7857 5.76447 16.0502 6.5 15.1429 6.5Z" fill="white"/>
</svg>
