<svg width="33" height="24" viewBox="0 0 33 24" fill="none" xmlns="http://www.w3.org/2000/svg">
<path d="M10.9834 10.2401L10.0897 9.99842C8.47733 9.55548 6.86495 9.11083 5.25257 8.66444C5.17787 8.64132 5.10976 8.60148 5.05367 8.54811C4.53124 8.04141 4.01411 7.53083 3.493 7.02283C3.46069 7.00223 3.43808 6.96997 3.43013 6.93314C3.42218 6.89631 3.42953 6.85791 3.45057 6.82636C3.86693 6.00296 4.274 5.1744 4.69035 4.35101C4.72983 4.27505 4.79233 4.21278 4.86936 4.17263C5.74052 3.73961 6.62362 3.31434 7.48948 2.88261C7.50893 2.86855 7.53105 2.8584 7.55455 2.85274C7.57806 2.84708 7.60248 2.84602 7.62641 2.84963C7.65033 2.85324 7.67329 2.86144 7.69394 2.87375C7.71459 2.88607 7.73253 2.90226 7.74672 2.92139C8.25722 3.43197 8.77435 3.93608 9.2875 4.44408C9.33056 4.48178 9.36336 4.5293 9.38297 4.58239C9.91468 6.45408 10.4437 8.33095 10.9834 10.2401Z" fill="#1F97D3"/>
<path d="M24.1013 13.7198C24.7391 13.0735 25.3756 12.4272 26.0227 11.7809C26.5172 11.291 27.0238 10.8127 27.525 10.3293C27.7769 10.0863 28.0288 9.84198 28.2848 9.60285C28.3343 9.55775 28.3937 9.52417 28.4585 9.50461C29.1705 9.31072 29.8852 9.12329 30.5986 8.9294C30.6364 8.91266 30.6795 8.91114 30.7185 8.92518C30.7575 8.93922 30.7892 8.96767 30.8068 9.00437C31.3478 9.81225 31.8967 10.6175 32.4377 11.4267C32.4786 11.4844 32.5004 11.553 32.5 11.6232C32.4377 12.5409 32.3674 13.4587 32.3064 14.3752C32.3099 14.4201 32.2956 14.4647 32.2666 14.4997C32.2375 14.5348 32.1958 14.5578 32.15 14.5639C31.4591 14.7423 30.771 14.9297 30.0815 15.1081C29.9864 15.1341 29.8864 15.1376 29.7897 15.1184C27.9069 14.6582 26.0253 14.1951 24.1451 13.7289L24.1013 13.7198Z" fill="#1F97D3"/>
<path d="M22.0248 10.2596C22.0898 10.0231 22.1468 9.80593 22.2091 9.59006C22.6749 7.94414 23.1412 6.29865 23.608 4.65359C23.6267 4.58989 23.6613 4.53171 23.7088 4.48426C24.2246 3.96722 24.7457 3.46439 25.2602 2.95123C25.2735 2.93291 25.2904 2.91737 25.3099 2.90553C25.3295 2.89369 25.3513 2.88579 25.374 2.8823C25.3968 2.8788 25.42 2.87979 25.4423 2.88519C25.4647 2.89059 25.4857 2.9003 25.5041 2.91374C26.366 3.34159 27.2345 3.75911 28.0951 4.18954C28.1954 4.24093 28.2769 4.3213 28.3285 4.41963C28.7395 5.2288 29.1386 6.04314 29.547 6.85361C29.5686 6.88474 29.5769 6.92291 29.5699 6.95989C29.563 6.99688 29.5414 7.02973 29.5099 7.05138C28.9888 7.55937 28.473 8.07125 27.9519 8.57924C27.901 8.63022 27.8382 8.66837 27.7689 8.69041C25.8931 9.20745 24.0164 9.72449 22.1388 10.2415C22.1013 10.2502 22.0632 10.2563 22.0248 10.2596Z" fill="#1F97D3"/>
<path d="M18.503 8.24963C18.3704 7.74422 18.2458 7.25561 18.1185 6.7683C17.7649 5.38262 17.4073 3.99651 17.0458 2.60998C17.0279 2.53602 17.0279 2.45902 17.0458 2.38506C17.2341 1.6974 17.429 1.01231 17.6146 0.323353C17.6167 0.301046 17.6235 0.279385 17.6344 0.259664C17.6453 0.239943 17.6601 0.222566 17.6781 0.208571C17.696 0.194576 17.7167 0.18425 17.7388 0.178209C17.7609 0.172167 17.7841 0.170535 17.8069 0.17341C18.7894 0.128169 19.7733 0.0764647 20.7558 0.0299308C20.8274 0.0261631 20.8985 0.0432634 20.96 0.0790499C21.7556 0.596093 22.5326 1.12994 23.3203 1.65474C23.3367 1.66158 23.3516 1.67159 23.3639 1.68417C23.3763 1.69675 23.3859 1.71164 23.3922 1.72794C23.3986 1.74424 23.4014 1.76161 23.4007 1.77902C23.3999 1.79643 23.3956 1.81351 23.3879 1.82924C23.1877 2.52984 22.9981 3.23431 22.7992 3.9349C22.7789 4.00308 22.7415 4.06527 22.6904 4.11587C21.5678 5.22923 20.4438 6.34001 19.3185 7.44821C19.0758 7.68734 18.8372 7.92906 18.5958 8.16949C18.5746 8.19405 18.5454 8.21473 18.503 8.24963Z" fill="#1F97D3"/>
<path d="M14.4867 8.22885C14.3262 8.06728 14.1817 7.91733 14.0345 7.77127C12.8482 6.59758 11.6597 5.42605 10.469 4.25667C10.3055 4.10469 10.1896 3.9106 10.1348 3.69697C9.96377 3.03127 9.77018 2.37204 9.58057 1.69343L10.2794 1.22421C10.8562 0.836426 11.4303 0.448643 12.0031 0.0686165C12.0764 0.0220608 12.1623 -0.00182007 12.2497 0.000108215C13.2336 0.0453495 14.2162 0.0983464 15.1987 0.14488C15.3008 0.14488 15.3432 0.175903 15.3711 0.274141C15.5594 0.97215 15.7583 1.66887 15.9505 2.36558C15.9664 2.43059 15.9664 2.49834 15.9505 2.56335C15.4785 4.40747 15.0051 6.25245 14.5304 8.0983C14.5211 8.13449 14.5092 8.16422 14.4867 8.22885Z" fill="#1F97D3"/>
<path d="M8.96531 13.6732L7.24155 14.0984C5.91558 14.4255 4.58961 14.7447 3.26363 15.0795C3.13657 15.1109 3.00314 15.1077 2.87778 15.0705C2.16043 14.8753 1.44042 14.6827 0.709812 14.494C0.677989 14.0648 0.646166 13.6383 0.614343 13.2117C0.575889 12.6766 0.533458 12.1401 0.500309 11.605C0.497305 11.5348 0.516265 11.4654 0.554674 11.4059C1.09302 10.6006 1.63932 9.80182 2.17634 8.99652C2.18735 8.97336 2.20308 8.95263 2.22255 8.93557C2.24203 8.9185 2.26485 8.90547 2.28964 8.89725C2.31443 8.88904 2.34067 8.88581 2.36678 8.88776C2.39289 8.88972 2.41832 8.89681 2.44153 8.90862C3.10275 9.09217 3.76574 9.26926 4.43049 9.43988C4.56834 9.47198 4.69448 9.54039 4.79513 9.63765C6.14144 10.9406 7.49039 12.2414 8.842 13.54C8.8778 13.5762 8.90962 13.6137 8.96531 13.6732Z" fill="#1F97D3"/>
<path d="M22.8456 23.9767V23.2929C22.8456 22.9982 22.8456 22.7035 22.8456 22.4088C22.8517 22.3661 22.8479 22.3226 22.8344 22.2816C22.8209 22.2405 22.7981 22.203 22.7676 22.1718C22.7371 22.1406 22.6998 22.1165 22.6584 22.1014C22.617 22.0862 22.5727 22.0804 22.5286 22.0843C22.4173 22.0843 22.3072 22.0843 22.1746 22.0843V23.9715H20.0928C19.7039 23.9838 19.3248 23.8515 19.0323 23.6014C18.7397 23.3513 18.5557 23.0021 18.5176 22.6246C18.468 22.251 18.4814 21.872 18.5574 21.5026L19.7666 21.3333C19.7084 21.6028 19.6641 21.8751 19.6341 22.1489C19.5929 22.7875 19.9536 23.1533 20.606 23.1649C20.7571 23.1649 20.9096 23.1649 21.0767 23.1649V21.2402H22.9026C23.1572 21.2419 23.4008 21.3417 23.5804 21.5177C23.76 21.6937 23.8609 21.9317 23.8612 22.18C23.8612 22.5044 23.8612 22.8263 23.8612 23.1611H25.3318V21.2816H26.4973V23.1494H27.9055C27.8829 23.0111 27.8498 22.8806 27.8392 22.7474C27.7676 21.8943 28.1746 21.4225 29.0763 21.3049C29.4215 21.2403 29.7784 21.2712 30.1066 21.3941C30.5044 21.5647 30.7404 21.8439 30.7364 22.2898C30.7298 22.8482 30.7364 23.4054 30.7364 23.9767H22.8456ZM29.7088 23.1287V22.9659C29.7088 22.7952 29.7194 22.6246 29.7088 22.4553C29.7013 22.3594 29.6575 22.2697 29.5859 22.2036C29.5144 22.1374 29.4202 22.0995 29.3216 22.0972C29.2687 22.0962 29.2161 22.1055 29.1669 22.1245C29.1177 22.1435 29.0729 22.1719 29.0352 22.208C28.9974 22.2441 28.9674 22.2872 28.9469 22.3348C28.9264 22.3824 28.9158 22.4334 28.9159 22.485C28.9077 22.5872 28.9108 22.6899 28.9251 22.7914C28.9295 22.8749 28.9639 22.9543 29.0224 23.0155C29.0808 23.0767 29.1595 23.1159 29.2447 23.1261C29.3892 23.1365 29.5404 23.1287 29.7088 23.1287Z" fill="#1F97D3"/>
<path d="M6.75619 23.9613H5.61585V23.7442C5.61585 23.3047 5.61585 22.8652 5.61585 22.4257C5.61585 22.1594 5.5058 22.0534 5.22867 22.0522H4.98071V23.9807H3.97165C3.97165 23.9277 3.96369 23.8734 3.96369 23.8192V22.5265C3.96369 22.1064 3.84701 22.0095 3.38955 22.0573V23.9497H2.27838V21.2973H5.72591C5.86142 21.2916 5.99667 21.3134 6.12305 21.3615C6.24942 21.4095 6.36416 21.4827 6.45995 21.5763C6.55574 21.6699 6.63048 21.7819 6.67943 21.9053C6.72838 22.0286 6.75045 22.1605 6.74426 22.2926C6.74426 22.7941 6.74426 23.2956 6.74426 23.7972L6.75619 23.9613Z" fill="#1F97D3"/>
<path d="M16.4253 10.2428C16.0739 9.87436 15.7371 9.50467 15.3804 9.15308C15.3147 9.09804 15.2681 9.02442 15.2472 8.94243C15.2263 8.86045 15.2321 8.77415 15.2637 8.6955C15.6774 7.23485 16.0765 5.77033 16.4796 4.3071C16.4796 4.29676 16.4876 4.28771 16.5022 4.25281C16.591 4.5682 16.6759 4.86163 16.7581 5.15763C17.0949 6.37786 17.4299 7.59765 17.7632 8.81701C17.7719 8.84915 17.7734 8.88274 17.7677 8.91552C17.762 8.94829 17.7492 8.9795 17.73 9.00702C17.3031 9.41807 16.8681 9.82524 16.4253 10.2428Z" fill="#1F97D3"/>
<path d="M28.1044 15.6898L26.9243 15.9871C25.768 16.2749 24.6109 16.5644 23.4529 16.8557C23.407 16.8724 23.3571 16.875 23.3097 16.8632C23.2623 16.8514 23.2197 16.8258 23.1877 16.7898C22.7978 16.4175 22.4 16.0543 21.9585 15.6445C22.1813 15.4468 22.3987 15.2567 22.6082 15.0654C22.8177 14.8741 23.0484 14.6324 23.2712 14.4191C23.2929 14.4011 23.3184 14.388 23.3459 14.3806C23.3734 14.3732 23.4022 14.3718 23.4303 14.3765C24.9888 14.8022 26.5455 15.2296 28.1004 15.6587L28.1044 15.6898Z" fill="#1F97D3"/>
<path d="M10.9993 15.6471L10.0857 16.4963C10.0114 16.5548 9.9422 16.6192 9.87884 16.6889C9.76349 16.8414 9.62956 16.8466 9.45056 16.8014C7.9774 16.4252 6.50159 16.0594 5.02711 15.6897L4.85474 15.6419C5.29496 15.5126 5.70071 15.4041 6.10778 15.2916C7.23751 14.9801 8.36193 14.6712 9.49431 14.3532C9.54434 14.3345 9.59931 14.3325 9.65064 14.3474C9.70197 14.3624 9.74678 14.3935 9.77807 14.4359C10.1427 14.8056 10.5153 15.1649 10.8853 15.5282L10.9993 15.6471Z" fill="#1F97D3"/>
<path d="M19.2204 10.9641C19.0878 10.447 18.9552 9.9429 18.8014 9.44525C18.7654 9.35778 18.7603 9.26111 18.787 9.17052C18.8137 9.07993 18.8705 9.00058 18.9486 8.94501C20.0399 7.94324 21.1165 6.92595 22.1985 5.91513C22.2343 5.88153 22.2741 5.8505 22.3391 5.79492L21.5926 8.32456C21.395 8.99413 21.1948 9.66111 21.0012 10.332C20.9912 10.381 20.9662 10.4258 20.9295 10.4607C20.8928 10.4955 20.8462 10.5187 20.7957 10.5272C20.2732 10.6668 19.7508 10.8141 19.2204 10.9641Z" fill="#1F97D3"/>
<path d="M26.5716 10.0127C26.0854 10.4737 25.5992 10.9347 25.113 11.3958C24.4385 12.0378 23.7627 12.6798 23.0856 13.3217C23.0657 13.3385 23.0425 13.351 23.0173 13.3583C22.9922 13.3657 22.9657 13.3678 22.9397 13.3644C22.3894 13.2351 21.8392 13.1059 21.2796 12.9766C21.2826 12.9332 21.2884 12.8901 21.2968 12.8474C21.4374 12.3303 21.5832 11.8133 21.7185 11.2962C21.7241 11.254 21.7435 11.2146 21.7738 11.1839C21.8042 11.1531 21.8438 11.1327 21.8869 11.1256C23.2067 10.8068 24.5251 10.4849 25.8423 10.16C26.0319 10.1135 26.2202 10.0631 26.4111 10.0191C26.4656 10.012 26.5206 10.0094 26.5755 10.0114L26.5716 10.0127Z" fill="#1F97D3"/>
<path d="M6.4632 9.9778C6.75491 10.0424 7.04928 10.1006 7.33966 10.1717C8.59536 10.478 9.85105 10.7883 11.1067 11.0946C11.1502 11.0998 11.1907 11.1184 11.2225 11.1477C11.2542 11.177 11.2755 11.2155 11.2831 11.2575C11.4157 11.7823 11.5655 12.3045 11.7074 12.8267C11.7167 12.8616 11.7207 12.8965 11.73 12.9417C11.1638 13.071 10.6055 13.2093 10.0446 13.3295C10.0176 13.3289 9.99101 13.323 9.9664 13.3121C9.94179 13.3013 9.91969 13.2856 9.90144 13.2662C9.45945 12.8474 9.01481 12.4269 8.56751 12.0046C7.90011 11.3704 7.23403 10.7348 6.56927 10.098C6.53143 10.0573 6.49644 10.0141 6.46452 9.96875L6.4632 9.9778Z" fill="#1F97D3"/>
<path d="M10.701 5.77686C11.2473 6.2939 11.7909 6.80319 12.3372 7.31377C12.9604 7.89673 13.585 8.47711 14.2069 9.06137C14.223 9.07647 14.2355 9.09483 14.2435 9.11516C14.2515 9.13548 14.2548 9.15728 14.2533 9.179C14.1021 9.75809 13.9443 10.332 13.7839 10.9305L13.166 10.7573C12.8358 10.6655 12.503 10.5686 12.1741 10.4832C12.1334 10.4759 12.096 10.4567 12.0668 10.428C12.0377 10.3994 12.0182 10.3627 12.011 10.323C11.5788 8.85025 11.1443 7.37883 10.7076 5.9087C10.7025 5.86576 10.7025 5.82238 10.7076 5.77944L10.701 5.77686Z" fill="#1F97D3"/>
<path d="M15.8842 18.3241H17.2102V23.9999H15.8842V18.3241Z" fill="#1F97D3"/>
<path d="M11.8798 21.3024C12.5176 21.3024 13.1474 21.2869 13.776 21.3024C13.9853 21.3198 14.1805 21.4126 14.3234 21.5627C14.4664 21.7128 14.5468 21.9094 14.549 22.1142C14.5715 22.7178 14.549 23.3241 14.549 23.9238C14.549 23.9342 14.541 23.9432 14.5331 23.96H13.5585V23.474H12.9592V23.9523H11.8745L11.8798 21.3024ZM13.5386 22.595C13.5863 22.1038 13.3835 21.9151 12.9035 21.9901V22.595H13.5386Z" fill="#1F97D3"/>
<path d="M8.94145 22.3844V22.9454H7.91117V23.3138H8.93614V23.9678H7.0042V23.6873C7.0042 23.1289 7.0042 22.5705 7.0042 22.0134C6.99727 21.9176 7.01158 21.8214 7.04615 21.7314C7.08072 21.6415 7.13475 21.5598 7.20455 21.492C7.27436 21.4242 7.35832 21.3718 7.45073 21.3385C7.54314 21.3051 7.64184 21.2915 7.74012 21.2986C8.12597 21.2986 8.51316 21.2986 8.89902 21.2986C8.91272 21.3008 8.92608 21.3047 8.93879 21.3102V22.0276H7.90454V22.3831L8.94145 22.3844Z" fill="#1F97D3"/>
<path d="M10.9688 23.9676H9.90807V22.0287H9.33392V21.3113H11.5297V22.0222H10.9688V23.9676Z" fill="#1F97D3"/>
<path d="M19.5466 11.5831V12.8667H18.2206V11.5831H19.5466Z" fill="#1F97D3"/>
<path d="M15.8285 11.5793H17.1452V12.872H15.8285V11.5793Z" fill="#1F97D3"/>
<path d="M19.5413 17.2979H18.2219V16.0052H19.5413V17.2979Z" fill="#1F97D3"/>
<path d="M18.2219 13.8583H19.5413V15.1509H18.2219V13.8583Z" fill="#1F97D3"/>
<path d="M14.9189 11.5846V12.8682H13.593V11.5846H14.9189Z" fill="#1F97D3"/>
<path d="M14.9176 16.0118V17.2967H13.5916V16.0118H14.9176Z" fill="#1F97D3"/>
<path d="M14.911 15.152H13.593V13.8594H14.911V15.152Z" fill="#1F97D3"/>
<path d="M15.8232 15.1481V13.8658H17.1492V15.1481H15.8232Z" fill="#1F97D3"/>
<path d="M25.8569 20.5435C25.8549 20.6786 25.798 20.8074 25.6987 20.9016C25.5994 20.9958 25.4657 21.0476 25.3271 21.0457C25.1886 21.0438 25.0565 20.9884 24.9599 20.8915C24.8633 20.7947 24.8101 20.6644 24.812 20.5293C24.8139 20.3943 24.8708 20.2655 24.9702 20.1713C25.0695 20.0771 25.2032 20.0253 25.3417 20.0271C25.4803 20.029 25.6124 20.0845 25.709 20.1813C25.8056 20.2782 25.8588 20.4085 25.8569 20.5435Z" fill="#1F97D3"/>
<path d="M27.0436 20.5435C27.0443 20.6107 27.0312 20.6774 27.0052 20.7397C26.9791 20.802 26.9405 20.8585 26.8918 20.9061C26.843 20.9536 26.785 20.9912 26.7211 21.0166C26.6572 21.042 26.5888 21.0548 26.5198 21.0541C26.3792 21.0541 26.2443 20.9996 26.1448 20.9026C26.0453 20.8057 25.9894 20.6742 25.9894 20.537C25.9922 20.4017 26.0493 20.2728 26.1485 20.1781C26.2477 20.0834 26.381 20.0303 26.5198 20.0303C26.5891 20.0293 26.6579 20.0418 26.7222 20.0673C26.7864 20.0927 26.8447 20.1305 26.8935 20.1784C26.9424 20.2263 26.9809 20.2834 27.0067 20.3461C27.0325 20.4088 27.045 20.4759 27.0436 20.5435Z" fill="#1F97D3"/>
<path d="M17.2088 16.0118V17.3044H15.8829V16.0118H17.2088ZM15.9744 17.2075H17.1121V16.1036H15.9744V17.2075Z" fill="#1F97D3"/>
<path d="M26.5742 10.0144L26.5569 9.99479L26.5689 9.98694C26.5689 9.9961 26.5689 10.004 26.5689 10.0131L26.5742 10.0144Z" fill="#1F97D3"/>
<path d="M6.4645 9.97679L6.44196 9.96763L6.45654 9.95715V9.9781L6.4645 9.97679Z" fill="#1F97D3"/>
</svg>
