<svg width="101" height="100" viewBox="0 0 101 100" fill="none" xmlns="http://www.w3.org/2000/svg">
<g clip-path="url(#clip0_223_1950)">
<path d="M16.6293 64.5145H13.4033C8.94941 64.5145 5.33887 60.9039 5.33887 56.45C5.33887 53.7777 7.50527 51.6113 10.1775 51.6113H16.6291L16.6293 64.5145Z" fill="#BD4150"/>
<path d="M77.9178 0H18.2404L16.5791 3.22578V98.4375H92.434L95.6598 96.7742V17.742L77.9178 0Z" fill="#ECEAEC"/>
<path d="M18.2424 91.9355V0C16.4609 0 15.0166 1.44414 15.0166 3.22578V96.7742C15.0166 98.5559 16.4609 100 18.2424 100H92.436C94.2174 100 95.6618 98.5557 95.6618 96.7742H23.0811C20.4086 96.7742 18.2424 94.6078 18.2424 91.9355ZM95.6618 17.465C95.6618 16.6096 95.3219 15.7891 94.7168 15.184L80.477 0.944727C79.872 0.339833 79.0516 7.83075e-06 78.1961 0L77.9198 0V16.1291C77.9198 16.5569 78.0897 16.9671 78.3922 17.2696C78.6946 17.5721 79.1049 17.742 79.5326 17.742H95.6618V17.465Z" fill="#DAD8DB"/>
<path d="M60.1758 61.2912H10.1758C9.61016 61.2912 9.06699 61.1941 8.5623 61.0156L7.00879 63.6076V83.9852C7.00879 86.6576 9.17519 88.8238 11.8475 88.8238H60.1758L63.4016 87.0975V64.517C63.4016 62.7354 61.9574 61.2912 60.1758 61.2912Z" fill="#E15F78"/>
<path d="M8.56465 61.0135C6.68965 60.3469 5.33887 58.5541 5.33887 56.4502V85.4824C5.33887 88.1547 7.50527 90.3211 10.1775 90.3211H60.1775C61.959 90.3211 63.4033 88.8768 63.4033 87.0953H13.4033C10.7311 87.0953 8.56465 84.9289 8.56465 82.2566V61.0135Z" fill="#DB4655"/>
<path d="M51.3719 74.0744H48.2059V71.0172H51.7846C52.6762 71.0172 53.3975 70.2949 53.3975 69.4043C53.3975 68.5137 52.676 67.7914 51.7846 67.7914H46.593C46.3811 67.7914 46.1714 67.833 45.9757 67.9141C45.78 67.9951 45.6021 68.1139 45.4524 68.2637C45.3026 68.4135 45.1838 68.5913 45.1027 68.787C45.0217 68.9827 44.98 69.1925 44.9801 69.4043V82.2131C44.9801 83.1037 45.7016 83.826 46.593 83.826C47.4844 83.826 48.2059 83.1037 48.2059 82.2131V77.3004H51.3719C52.2635 77.3004 52.9848 76.5781 52.9848 75.6875C52.9848 74.7969 52.2633 74.0744 51.3719 74.0744ZM21.7898 67.7441H18.1971C17.9849 67.7442 17.7748 67.7861 17.5789 67.8675C17.3829 67.9488 17.2049 68.068 17.0551 68.2182C16.7541 68.5208 16.5852 68.9302 16.5852 69.357H16.584V82.2604C16.584 83.151 17.3055 83.8732 18.1969 83.8732C19.0883 83.8732 19.8098 83.151 19.8098 82.2604V78.26C20.5334 78.2561 21.3289 78.2525 21.7896 78.2525C24.7256 78.2525 27.115 75.8953 27.115 72.9988C27.1152 70.1012 24.7258 67.7441 21.7898 67.7441ZM21.7898 75.0266C21.1352 75.0274 20.4805 75.0298 19.8258 75.0336C19.8227 74.2895 19.8148 70.9699 19.8148 70.9699H21.79C22.9289 70.9699 23.8896 71.8992 23.8896 72.9986C23.8896 74.098 22.9287 75.0266 21.7898 75.0266ZM35.3152 67.9348H31.7697C31.5576 67.9347 31.3476 67.9765 31.1516 68.0577C30.9556 68.1389 30.7776 68.2579 30.6277 68.408C30.4779 68.5581 30.3591 68.7363 30.2783 68.9324C30.1975 69.1285 30.1562 69.3387 30.1568 69.5508L30.1662 75.7945C30.1662 77.5357 30.182 82.0752 30.182 82.0752C30.1829 82.2872 30.2254 82.497 30.3074 82.6925C30.3893 82.888 30.5089 83.0655 30.6594 83.2148C30.9614 83.5145 31.3696 83.6827 31.7951 83.6826H31.8014C31.8014 83.6826 34.4303 83.6725 35.4477 83.6551C39.2357 83.5881 41.9859 80.2883 41.9859 75.8088C41.9857 71.099 39.3049 67.9348 35.3152 67.9348ZM35.3908 80.4291C34.9293 80.4369 34.1307 80.4441 33.4031 80.448C33.3984 78.9715 33.3922 76.8592 33.3922 75.7943L33.3859 71.1604H35.3154C38.5947 71.1604 38.7602 75.032 38.7602 75.8084C38.76 78.0791 37.7187 80.3883 35.3908 80.4291Z" fill="white"/>
<path d="M39.1574 54.5608C37.9131 54.5608 36.7885 53.9134 35.9979 52.6919C34.8229 50.879 35.1316 48.8259 36.8438 47.0585C38.5701 45.2755 42.1029 43.5979 46.3543 42.2284C47.6805 39.7288 49.0305 36.803 50.292 33.5685C51.0371 31.6571 51.6387 29.9339 52.1207 28.3927C49.9959 24.4974 48.7326 20.8708 49.0682 18.5159C49.41 16.1265 51.1945 14.7814 53.8471 14.9278C54.6346 14.9704 56.5137 15.3815 56.9674 18.2749C57.3139 20.4872 56.7311 24.0634 55.5623 28.1272C57.7738 31.8579 60.8059 35.8538 63.7717 38.9206C68.2545 38.6474 72.0535 38.9741 73.9641 40.1271C75.4604 41.0296 76.0479 42.5015 75.5359 44.0632C74.6981 46.6157 72.674 47.7851 70.116 47.189C67.9629 46.6864 65.2947 44.8065 62.5887 42.1968C58.2367 42.5796 53.1145 43.4655 48.6207 44.787C45.9383 49.6013 43.0385 53.3493 40.6035 54.2802C40.1121 54.4687 39.627 54.5608 39.1574 54.5608ZM38.7039 50.939C38.9732 51.3532 39.1213 51.3446 39.1906 51.3366C40.2176 51.2319 41.9281 49.4591 43.8813 46.4624C42.5897 47.0161 41.432 47.6161 40.4586 48.2605C38.0172 49.8772 38.5354 50.6759 38.7039 50.939ZM67.1188 41.9837C68.4969 43.061 69.7775 43.7974 70.8486 44.048C71.685 44.2425 72.115 44.1433 72.4709 43.0587C71.9953 42.3372 69.9713 41.9907 67.1188 41.9837ZM54.3084 32.0384C53.229 35.1023 51.9806 38.104 50.5691 41.0298C53.5918 40.2706 56.7781 39.6728 59.8213 39.2933C57.8539 37.0638 55.9527 34.5595 54.3084 32.0384ZM53.5318 18.0878C52.3867 18.0878 52.327 18.5171 52.2607 18.9706C52.0922 20.1622 52.5111 21.8569 53.3381 23.8108C54.0674 20.329 53.9193 18.487 53.5648 18.0878H53.5318Z" fill="#E15F78"/>
</g>
<defs>
<clipPath id="clip0_223_1950">
<rect width="100" height="100" fill="white" transform="translate(0.5)"/>
</clipPath>
</defs>
</svg>
