<svg width="32" height="17" viewBox="0 0 32 17" fill="none" xmlns="http://www.w3.org/2000/svg">
<path d="M30.6427 16.9486L28.6949 14.6634V16.9486H27.6214V11.8199H28.6949V14.1197L30.6427 11.8199H31.9387L29.7302 14.3622L32 16.9486H30.6427Z" fill="#12141D"/>
<path d="M26.5607 11.8199V16.9486H25.4871V11.8199H26.5607Z" fill="#12141D"/>
<path d="M24.4262 16.9486H23.3526L20.9217 13.429V16.9486H19.8481V11.8126H20.9217L23.3526 15.3394V11.8126H24.4262V16.9486Z" fill="#12141D"/>
<path d="M16.3118 17C15.8108 17 15.3507 16.8873 14.9315 16.662C14.5123 16.4367 14.18 16.1256 13.9346 15.7289C13.6892 15.3272 13.5665 14.8741 13.5665 14.3695C13.5665 13.8699 13.6892 13.4217 13.9346 13.0249C14.18 12.6233 14.5123 12.3098 14.9315 12.0844C15.3507 11.8591 15.8108 11.7464 16.3118 11.7464C16.8179 11.7464 17.278 11.8591 17.6921 12.0844C18.1113 12.3098 18.4411 12.6233 18.6813 13.0249C18.9267 13.4217 19.0494 13.8699 19.0494 14.3695C19.0494 14.8741 18.9267 15.3272 18.6813 15.7289C18.4411 16.1256 18.1113 16.4367 17.6921 16.662C17.2729 16.8873 16.8128 17 16.3118 17ZM16.3118 16.0815C16.6339 16.0815 16.9176 16.013 17.163 15.8758C17.4084 15.7338 17.6001 15.5329 17.7381 15.2733C17.8762 15.0137 17.9452 14.7124 17.9452 14.3695C17.9452 14.0267 17.8762 13.7278 17.7381 13.4731C17.6001 13.2135 17.4084 13.0151 17.163 12.878C16.9176 12.7408 16.6339 12.6722 16.3118 12.6722C15.9897 12.6722 15.7035 12.7408 15.453 12.878C15.2076 13.0151 15.0159 13.2135 14.8778 13.4731C14.7398 13.7278 14.6708 14.0267 14.6708 14.3695C14.6708 14.7124 14.7398 15.0137 14.8778 15.2733C15.0159 15.5329 15.2076 15.7338 15.453 15.8758C15.7035 16.013 15.9897 16.0815 16.3118 16.0815Z" fill="#12141D"/>
<path d="M11.3812 16.133H13.1449V16.9486H10.3076V11.8199H11.3812V16.133Z" fill="#12141D"/>
<path d="M9.25092 11.8199V16.9486H8.17735V14.7663H5.88451V16.9486H4.81094V11.8199H5.88451V13.9287H8.17735V11.8199H9.25092Z" fill="#12141D"/>
<path d="M1.98611 17C1.61291 17 1.27551 16.9388 0.973883 16.8163C0.677373 16.6938 0.44221 16.5175 0.268393 16.2873C0.0945766 16.0571 0.00511224 15.7852 0 15.4717H1.15026C1.16559 15.6823 1.24228 15.8489 1.38031 15.9713C1.52345 16.0938 1.71772 16.155 1.9631 16.155C2.2136 16.155 2.41043 16.0987 2.55357 15.986C2.69671 15.8685 2.76828 15.7166 2.76828 15.5305C2.76828 15.3786 2.71972 15.2537 2.62258 15.1557C2.52545 15.0578 2.40276 14.9818 2.2545 14.928C2.11136 14.8692 1.91198 14.8055 1.65637 14.7369C1.30874 14.639 1.02501 14.5434 0.805179 14.4504C0.590465 14.3524 0.403868 14.2079 0.245388 14.0169C0.0920205 13.8209 0.0153367 13.5613 0.0153367 13.238C0.0153367 12.9343 0.0945766 12.6698 0.253056 12.4445C0.411536 12.2191 0.633919 12.0477 0.920205 11.9301C1.20649 11.8077 1.53367 11.7464 1.90176 11.7464C2.45388 11.7464 2.9012 11.8762 3.24372 12.1359C3.59136 12.3906 3.78306 12.7482 3.81885 13.2086H2.63792C2.6277 13.0323 2.54846 12.8878 2.4002 12.7751C2.25706 12.6575 2.06535 12.5988 1.82507 12.5988C1.61547 12.5988 1.44677 12.6502 1.31896 12.7531C1.19627 12.8559 1.13492 13.0053 1.13492 13.2013C1.13492 13.3384 1.18093 13.4535 1.27295 13.5466C1.37008 13.6348 1.48766 13.7083 1.6257 13.767C1.76884 13.8209 1.96822 13.8846 2.22383 13.9581C2.57146 14.056 2.85519 14.154 3.07502 14.252C3.29485 14.3499 3.484 14.4969 3.64248 14.6928C3.80096 14.8888 3.8802 15.1459 3.8802 15.4643C3.8802 15.7387 3.80607 15.9934 3.65781 16.2285C3.50956 16.4636 3.29229 16.6522 3.006 16.7943C2.71972 16.9314 2.37975 17 1.98611 17Z" fill="#12141D"/>
<path d="M27.7048 0.386159C27.7048 0.272407 27.7329 0.179609 27.7892 0.107766C27.8517 0.0359218 27.9298 0 28.0235 0C28.1172 0 28.1922 0.0359218 28.2484 0.107766C28.3109 0.179609 28.3421 0.272407 28.3421 0.386159V0.440042C28.3421 0.559782 28.3109 0.655573 28.2484 0.727416C28.1922 0.793273 28.1172 0.826202 28.0235 0.826202C27.9298 0.826202 27.8517 0.793273 27.7892 0.727416C27.7329 0.655573 27.7048 0.559782 27.7048 0.440042V0.386159ZM27.5267 1.82303C27.4268 1.82303 27.3424 1.78711 27.2737 1.71527C27.2112 1.64342 27.18 1.54464 27.18 1.41891V1.37401C27.18 1.24828 27.2112 1.1495 27.2737 1.07765C27.3424 1.00581 27.4268 0.969889 27.5267 0.969889C27.6205 0.969889 27.6986 1.00581 27.7611 1.07765C27.8235 1.1495 27.8548 1.24828 27.8548 1.37401V1.41891C27.8548 1.54464 27.8235 1.64342 27.7611 1.71527C27.6986 1.78711 27.6205 1.82303 27.5267 1.82303ZM28.5202 1.82303C28.4203 1.82303 28.339 1.78711 28.2765 1.71527C28.2141 1.64342 28.1828 1.54464 28.1828 1.41891V1.37401C28.1828 1.24828 28.2141 1.1495 28.2765 1.07765C28.339 1.00581 28.4203 0.969889 28.5202 0.969889C28.6202 0.969889 28.7014 1.00581 28.7639 1.07765C28.8264 1.1495 28.8576 1.24828 28.8576 1.37401V1.41891C28.8514 1.54464 28.817 1.64342 28.7545 1.71527C28.6983 1.78711 28.6202 1.82303 28.5202 1.82303ZM24.3776 5.9271V5.24459H24.7244C25.043 5.24459 25.2742 5.17573 25.4179 5.03803C25.5679 4.90033 25.6429 4.70875 25.6429 4.46329V2.81986C25.6429 2.70012 25.6772 2.60134 25.746 2.52351C25.821 2.44568 25.9116 2.40676 26.0178 2.40676C26.124 2.40676 26.2115 2.44568 26.2802 2.52351C26.3552 2.60134 26.3927 2.70012 26.3927 2.81986V4.52615C26.3927 4.75964 26.452 4.93925 26.5708 5.06498C26.6895 5.18472 26.8394 5.24459 27.0206 5.24459C27.2018 5.24459 27.3518 5.18172 27.4705 5.056C27.5892 4.93027 27.6486 4.75665 27.6486 4.53513V2.81986C27.6486 2.70012 27.6861 2.60134 27.7611 2.52351C27.836 2.44568 27.9235 2.40676 28.0235 2.40676C28.1297 2.40676 28.2172 2.44568 28.2859 2.52351C28.3609 2.60134 28.3984 2.70012 28.3984 2.81986V4.53513C28.3984 4.75665 28.4577 4.93027 28.5765 5.056C28.7014 5.18172 28.8514 5.24459 29.0263 5.24459C29.2075 5.24459 29.3575 5.18172 29.4762 5.056C29.6012 4.93027 29.6637 4.75665 29.6637 4.53513V2.81986C29.6637 2.70012 29.698 2.60134 29.7668 2.52351C29.8417 2.44568 29.9323 2.40676 30.0386 2.40676C30.1448 2.40676 30.2323 2.44568 30.301 2.52351C30.3697 2.60134 30.4041 2.70012 30.4041 2.81986V4.53513C30.4041 4.81053 30.3416 5.053 30.2166 5.26255C30.0979 5.47209 29.9355 5.63673 29.7293 5.75647C29.5293 5.87022 29.3044 5.9271 29.0545 5.9271H29.0076C28.8264 5.9271 28.6452 5.89118 28.464 5.81933C28.289 5.7415 28.1422 5.62476 28.0235 5.4691C27.911 5.61278 27.7673 5.72654 27.5924 5.81035C27.4236 5.88819 27.2424 5.9271 27.0488 5.9271H27.0113C26.7988 5.9271 26.602 5.88519 26.4208 5.80137C26.2458 5.71157 26.1021 5.59183 25.9897 5.44216C25.8522 5.61578 25.6741 5.7415 25.4554 5.81933C25.2367 5.89118 25.0087 5.9271 24.7712 5.9271H24.3776Z" fill="#12141D"/>
<path d="M24.4893 5.9271H22.4555V5.24458H24.4893V5.9271Z" fill="#12141D"/>
<path d="M22.5673 5.9271H20.5334V5.24458H22.5673V5.9271Z" fill="#12141D"/>
<path d="M20.6429 5.24459V5.9271H20.5304C20.2493 5.9271 20.0024 5.88519 19.79 5.80137C19.5838 5.71157 19.4182 5.59482 19.2933 5.45114C19.1683 5.59482 18.9996 5.71157 18.7871 5.80137C18.5747 5.88519 18.3248 5.9271 18.0374 5.9271H17.9249V5.24459H17.9717C18.3029 5.24459 18.5435 5.17574 18.6934 5.03804C18.8434 4.89435 18.9184 4.69678 18.9184 4.44533V0.673534C18.9184 0.553795 18.9527 0.45501 19.0215 0.377179C19.0902 0.299349 19.1808 0.260433 19.2933 0.260433C19.3995 0.260433 19.487 0.299349 19.5557 0.377179C19.6244 0.45501 19.6588 0.553795 19.6588 0.673534V4.44533C19.6588 4.69678 19.7338 4.89435 19.8837 5.03804C20.0337 5.17574 20.2711 5.24459 20.596 5.24459H20.6429Z" fill="#12141D"/>
<path d="M18.0366 5.9271H16.0028V5.24458H18.0366V5.9271Z" fill="#12141D"/>
<path d="M16.1043 5.9271H15.1108V6.11569C15.0983 6.33721 15.0327 6.55573 14.914 6.77126C14.7953 6.98679 14.6141 7.16041 14.3704 7.29213C14.1329 7.42983 13.8236 7.49868 13.4425 7.49868H12.6833C12.5584 7.49868 12.4521 7.46575 12.3647 7.39989C12.2834 7.34002 12.2428 7.2592 12.2428 7.15742C12.2428 7.05564 12.2834 6.97183 12.3647 6.90597C12.4521 6.8461 12.5584 6.81616 12.6833 6.81616H13.3769C13.5768 6.81616 13.7393 6.79222 13.8643 6.74432C13.9892 6.69642 14.0829 6.63356 14.1454 6.55573C14.2142 6.4779 14.261 6.39708 14.286 6.31326C14.3173 6.23543 14.336 6.16658 14.3423 6.10671L14.361 5.9271H13.6768C13.4519 5.9271 13.2301 5.87621 13.0114 5.77443C12.7927 5.67265 12.6083 5.51699 12.4584 5.30745C12.3147 5.09192 12.2428 4.81951 12.2428 4.49023V3.84363C12.2428 3.50836 12.3147 3.23596 12.4584 3.02641C12.6083 2.81687 12.7927 2.66121 13.0114 2.55943C13.2301 2.45765 13.4519 2.40676 13.6768 2.40676C13.908 2.40676 14.1329 2.45765 14.3516 2.55943C14.5703 2.66121 14.7515 2.81687 14.8952 3.02641C15.0389 3.23596 15.1108 3.50836 15.1108 3.84363V5.24458H16.1043V5.9271ZM14.3704 5.24458V3.87955C14.3704 3.68198 14.3329 3.52632 14.2579 3.41257C14.1892 3.29882 14.1017 3.21799 13.9955 3.1701C13.8955 3.11622 13.7924 3.08927 13.6862 3.08927C13.58 3.08927 13.4737 3.11622 13.3675 3.1701C13.2613 3.21799 13.1738 3.29882 13.1051 3.41257C13.0364 3.52632 13.002 3.68198 13.002 3.87955V4.46328C13.002 4.66085 13.0364 4.81652 13.1051 4.93027C13.1738 5.04402 13.2613 5.12484 13.3675 5.17274C13.4737 5.22064 13.58 5.24458 13.6862 5.24458H14.3704Z" fill="#12141D"/>
<path d="M10.9185 1.83201C10.7997 1.83201 10.706 1.7901 10.6373 1.70628C10.5686 1.61648 10.5342 1.5117 10.5342 1.39196V1.34706C10.5342 1.22134 10.5686 1.11656 10.6373 1.03275C10.706 0.948929 10.7997 0.90702 10.9185 0.90702C11.0309 0.90702 11.1215 0.948929 11.1903 1.03275C11.2652 1.11656 11.3027 1.22134 11.3027 1.34706V1.39196C11.3027 1.5117 11.2652 1.61648 11.1903 1.70628C11.1215 1.7901 11.0309 1.83201 10.9185 1.83201ZM9.55008 5.92709V5.24458H9.59694C9.9281 5.24458 10.1687 5.17573 10.3186 5.03803C10.4686 4.89434 10.5436 4.69677 10.5436 4.44532V2.81986C10.5436 2.70012 10.5779 2.60133 10.6467 2.5235C10.7216 2.44567 10.8122 2.40676 10.9185 2.40676C11.0247 2.40676 11.1122 2.44567 11.1809 2.5235C11.2496 2.60133 11.284 2.70012 11.284 2.81986V4.47226C11.284 4.74766 11.2215 4.99612 11.0965 5.21764C10.9716 5.43317 10.7904 5.60679 10.5529 5.7385C10.3155 5.86423 10.0187 5.92709 9.66255 5.92709H9.55008Z" fill="#12141D"/>
<path d="M9.66182 5.9271H7.62799V5.24458H9.66182V5.9271Z" fill="#12141D"/>
<path d="M7.74281 5.24459V5.9271H7.63034C7.34292 5.9271 7.09611 5.8822 6.88992 5.79239C6.68373 5.70259 6.51502 5.57986 6.38381 5.42419C6.25884 5.57986 6.09014 5.70259 5.87769 5.79239C5.6715 5.8822 5.42469 5.9271 5.13727 5.9271H3.00972C2.65357 5.9271 2.35365 5.86424 2.10997 5.73851C1.87253 5.6068 1.69133 5.43318 1.56636 5.21764C1.44764 4.99613 1.38829 4.74767 1.38829 4.47227V3.10724C1.38829 2.9875 1.42265 2.88871 1.49138 2.81088C1.56636 2.73305 1.65696 2.69414 1.76318 2.69414C1.86941 2.69414 1.95688 2.73305 2.02561 2.81088C2.10059 2.88871 2.13808 2.9875 2.13808 3.10724V4.44533C2.13808 4.69678 2.20994 4.89435 2.35365 5.03804C2.50361 5.17574 2.74417 5.24459 3.07533 5.24459H5.07166C5.40282 5.24459 5.64026 5.17574 5.78397 5.03804C5.93393 4.89435 6.00891 4.69678 6.00891 4.44533V0.673534C6.00891 0.553795 6.04327 0.45501 6.11201 0.377179C6.18698 0.299349 6.27758 0.260433 6.38381 0.260433C6.49003 0.260433 6.5775 0.299349 6.64623 0.377179C6.72121 0.45501 6.7587 0.553795 6.7587 0.673534V4.44533C6.7587 4.69678 6.83056 4.89435 6.97427 5.03804C7.12423 5.17574 7.36479 5.24459 7.69595 5.24459H7.74281ZM4.32187 1.36503H4.49057C4.5718 1.36503 4.6374 1.38898 4.68739 1.43687C4.74363 1.47878 4.77174 1.52668 4.77174 1.58056C4.77174 1.64043 4.74363 1.69431 4.68739 1.74221C4.6374 1.78412 4.5718 1.80507 4.49057 1.80507H4.34998C4.23751 1.80507 4.13129 1.83501 4.03132 1.89488C3.93759 1.95475 3.89073 2.06251 3.89073 2.21817V2.28104C3.89073 2.44268 3.93759 2.55344 4.03132 2.61331C4.13129 2.6672 4.23751 2.69414 4.34998 2.69414H4.78112C4.8561 2.69414 4.91858 2.71808 4.96857 2.76598C5.01855 2.80789 5.04354 2.85878 5.04354 2.91865C5.04354 2.97253 5.01855 3.02342 4.96857 3.07132C4.91858 3.11322 4.8561 3.13418 4.78112 3.13418H3.32838C3.24716 3.13418 3.18155 3.11322 3.13156 3.07132C3.08158 3.02342 3.05658 2.97253 3.05658 2.91865C3.05658 2.85878 3.08158 2.80789 3.13156 2.76598C3.18155 2.71808 3.24716 2.69414 3.32838 2.69414H3.58144C3.52521 2.62828 3.48459 2.55943 3.4596 2.48759C3.44085 2.41574 3.43148 2.34689 3.43148 2.28104V2.21817C3.43148 2.0685 3.46272 1.9308 3.52521 1.80507C3.58769 1.67336 3.68454 1.56859 3.81575 1.49076C3.95322 1.40694 4.12192 1.36503 4.32187 1.36503Z" fill="#12141D"/>
</svg>
