<svg width="16" height="13" viewBox="0 0 16 13" fill="none" xmlns="http://www.w3.org/2000/svg">
<path fill-rule="evenodd" clip-rule="evenodd" d="M10.6922 12.477C10.8676 12.477 11.0412 12.4425 11.2031 12.3754C11.3651 12.3083 11.5123 12.21 11.6362 12.086C11.7602 11.962 11.8585 11.8149 11.9256 11.6529C11.9927 11.4909 12.0272 11.3173 12.0272 11.142V5.927C12.0273 5.91717 12.0302 5.90757 12.0357 5.8994C12.0411 5.89123 12.0489 5.88486 12.058 5.88107C12.067 5.87728 12.077 5.87625 12.0867 5.87811C12.0963 5.87996 12.1052 5.88462 12.1122 5.8915L13.2017 6.982C13.4531 7.23062 13.7923 7.37034 14.1458 7.37096C14.4994 7.37158 14.839 7.23306 15.0913 6.98532C15.3436 6.73758 15.4882 6.40053 15.494 6.047C15.4998 5.69347 15.3663 5.35186 15.1222 5.096L10.3762 0.182C10.0062 -0.201 9.35724 0.0609999 9.35724 0.594V11.142C9.35724 11.3173 9.39177 11.4909 9.45886 11.6529C9.52595 11.8149 9.62429 11.962 9.74825 12.086C9.87222 12.21 10.0194 12.3083 10.1814 12.3754C10.3433 12.4425 10.5169 12.477 10.6922 12.477ZM5.23174 0C4.88342 0.000132517 4.5494 0.138561 4.3031 0.384861C4.0568 0.631162 3.91837 0.965179 3.91824 1.3135V6.5485C3.9183 6.55849 3.91537 6.56827 3.90981 6.57658C3.90426 6.58489 3.89635 6.59135 3.88709 6.59511C3.87783 6.59888 3.86766 6.59979 3.85788 6.59772C3.84811 6.59565 3.83918 6.5907 3.83224 6.5835L2.76224 5.4945C2.64023 5.36962 2.49448 5.27039 2.33357 5.20264C2.17266 5.13489 1.99983 5.09999 1.82524 5.09999C1.65065 5.09999 1.47782 5.13489 1.31691 5.20264C1.156 5.27039 1.01025 5.36962 0.888241 5.4945C0.642454 5.74601 0.50352 6.08287 0.500537 6.43453C0.497555 6.78618 0.630756 7.12535 0.872241 7.381L5.54274 12.2945C5.90724 12.678 6.54524 12.416 6.54524 11.883V1.3135C6.54511 0.965265 6.40675 0.631324 6.16056 0.385038C5.91436 0.138752 5.58048 0.000264994 5.23224 0H5.23174Z" fill="#1E1E1E"/>
</svg>
