<svg width="24" height="24" viewBox="0 0 24 24" fill="none" xmlns="http://www.w3.org/2000/svg">
<path d="M23.9685 11.9848C23.9685 18.6037 18.6026 23.9686 11.9846 23.9686C5.36569 23.9686 0.000732422 18.6037 0.000732422 11.9848C0.000732422 5.36583 5.36569 -1.71661e-05 11.9846 -1.71661e-05C18.6026 -1.71661e-05 23.9685 5.36583 23.9685 11.9848Z" fill="white"/>
<path d="M2.18374 14.3043L2.19978 14.2633L2.24698 14.1351L2.29329 14.0193L2.31377 13.9658C2.53731 13.4146 2.81874 12.8473 3.15984 12.2728C3.20437 12.1775 3.25068 12.084 3.29699 11.9896L1.86135 11.9932L2.20957 11.2237C3.39585 10.9004 5.37208 10.2396 7.25837 8.4103L7.31448 8.40674H8.30749L7.02325 11.1587L9.08587 11.1524L8.70737 11.9718L6.64831 11.9789C6.64831 11.9789 5.68201 13.9097 5.35427 15.2911C5.10045 16.8327 5.34982 17.9833 6.73113 18.4144C7.58433 18.6789 8.64859 18.6183 9.79568 18.2933C12.4648 17.4623 15.3183 15.6268 17.4058 13.1982C20.8426 9.2056 20.9094 5.12043 17.5581 4.07754C15.4073 3.4096 12.3748 4.15235 9.56858 5.8249C13.0677 3.56812 16.9151 2.50831 19.57 3.33479C20.0678 3.48975 20.4989 3.70349 20.8658 3.96711C18.6723 1.54914 15.5053 0.0315609 11.9839 0.0315609C5.36674 0.0315609 0 5.39741 0 12.0154C0 14.4592 0.732961 16.7312 1.98781 18.6263C1.51312 17.4552 1.57992 15.9528 2.18374 14.3043Z" fill="black"/>
<path d="M22.1458 5.65815C22.9474 7.83566 21.9446 11.0855 19.1766 14.3023C15.0211 19.1347 8.45646 22.0567 4.51646 20.8304C4.02752 20.6781 3.60271 20.4688 3.24023 20.2096C5.42665 22.543 8.53484 24 11.9841 24C18.6039 24 23.9698 18.635 23.9698 12.0161C23.9698 9.6792 23.2992 7.5008 22.1458 5.65815Z" fill="black"/>
</svg>
