<svg width="32" height="32" viewBox="0 0 32 32" fill="none" xmlns="http://www.w3.org/2000/svg">
<path fill-rule="evenodd" clip-rule="evenodd" d="M26.9348 12.2109C26.5881 11.8109 26.3081 11.0642 26.3081 10.5309V8.26422C26.3081 6.85089 25.1481 5.69089 23.7348 5.69089H21.4681C20.9481 5.69089 20.1881 5.41089 19.7881 5.06422L17.6815 3.25089C16.7615 2.46422 15.2548 2.46422 14.3215 3.25089L12.2281 5.07756C11.8281 5.41089 11.0681 5.69089 10.5481 5.69089H8.24147C6.82814 5.69089 5.66814 6.85089 5.66814 8.26422V10.5442C5.66814 11.0642 5.38814 11.8109 5.0548 12.2109L3.2548 14.3309C2.48147 15.2509 2.48147 16.7442 3.2548 17.6642L5.0548 19.7842C5.38814 20.1842 5.66814 20.9309 5.66814 21.4509V23.7309C5.66814 25.1442 6.82814 26.3042 8.24147 26.3042H10.5481C11.0681 26.3042 11.8281 26.5842 12.2281 26.9309L14.3348 28.7442C15.2548 29.5309 16.7615 29.5309 17.6948 28.7442L19.8015 26.9309C20.2015 26.5842 20.9481 26.3042 21.4815 26.3042H23.7481C25.1615 26.3042 26.3215 25.1442 26.3215 23.7309V21.4642C26.3215 20.9442 26.6015 20.1842 26.9481 19.7842L28.7615 17.6776C29.5348 16.7576 29.5348 15.2376 28.7481 14.3176L26.9348 12.2109ZM15.1081 19.9176C14.9215 20.1042 14.6681 20.2109 14.4015 20.2109C14.1348 20.2109 13.8815 20.1042 13.6948 19.9176L10.4681 16.6909C10.0815 16.3042 10.0815 15.6642 10.4681 15.2776C10.8548 14.8909 11.4948 14.8909 11.8815 15.2776L14.4015 17.7976L20.1348 12.0642C20.5215 11.6776 21.1615 11.6776 21.5481 12.0642C21.9348 12.4509 21.9348 13.0909 21.5481 13.4776L15.1081 19.9176Z" fill="#1F97D3"/>
</svg>
