<svg width="21" height="20" viewBox="0 0 21 20" fill="none" xmlns="http://www.w3.org/2000/svg">
<g clip-path="url(#clip0_238_2236)">
<path d="M10.5009 13.0808C12.2014 13.0808 13.5799 11.7023 13.5799 10.0018C13.5799 8.30126 12.2014 6.92273 10.5009 6.92273C8.80041 6.92273 7.42188 8.30126 7.42188 10.0018C7.42188 11.7023 8.80041 13.0808 10.5009 13.0808Z" fill="#022454"/>
<path d="M20.1932 9.14885C17.8265 6.28881 14.2438 3.53577 10.5 3.53577C6.75555 3.53577 3.17205 6.29073 0.806845 9.14885C0.397718 9.64304 0.397718 10.3605 0.806845 10.8546C1.40148 11.5732 2.64811 12.9603 4.3131 14.1723C8.50632 17.2249 12.4845 17.2316 16.687 14.1723C18.352 12.9603 19.5986 11.5732 20.1932 10.8546C20.6012 10.3614 20.6033 9.64465 20.1932 9.14885ZM10.5 5.69109C12.8771 5.69109 14.8107 7.62473 14.8107 10.0017C14.8107 12.3788 12.8771 14.3124 10.5 14.3124C8.12302 14.3124 6.18939 12.3788 6.18939 10.0017C6.18939 7.62473 8.12302 5.69109 10.5 5.69109Z" fill="#022454"/>
</g>
<defs>
<clipPath id="clip0_238_2236">
<rect width="20" height="20" fill="white" transform="translate(0.5)"/>
</clipPath>
</defs>
</svg>
